<svg width="64" height="64" viewBox="0 0 64 64" fill="none" xmlns="http://www.w3.org/2000/svg">
<path d="M64 32C64 23.5131 60.6286 15.3737 54.6274 9.37258C48.6263 3.37142 40.4869 -1.76974e-06 32 -1.39876e-06C23.5131 -1.02779e-06 15.3737 3.37142 9.37258 9.37258C3.37142 15.3737 -1.76974e-06 23.5131 -1.39876e-06 32C-1.02779e-06 40.4869 3.37142 48.6263 9.37258 54.6274C15.3737 60.6286 23.5131 64 32 64C40.4869 64 48.6263 60.6286 54.6274 54.6274C60.6286 48.6263 64 40.4869 64 32ZM40.828 36L47.416 42.584C47.6023 42.7698 47.75 42.9905 47.8508 43.2335C47.9517 43.4764 48.0036 43.7369 48.0036 44C48.0036 44.2631 47.9517 44.5236 47.8508 44.7665C47.75 45.0095 47.6023 45.2302 47.416 45.416L40.828 52C40.6435 52.191 40.4228 52.3434 40.1788 52.4482C39.9348 52.553 39.6724 52.6082 39.4068 52.6105C39.1412 52.6128 38.8779 52.5622 38.6321 52.4616C38.3863 52.3611 38.163 52.2126 37.9752 52.0248C37.7874 51.837 37.6389 51.6137 37.5384 51.3679C37.4378 51.1221 37.3872 50.8588 37.3895 50.5932C37.3918 50.3276 37.447 50.0652 37.5518 49.8212C37.6566 49.5772 37.809 49.3565 38 49.172L41.172 46L18 46C17.4696 46 16.9609 45.7893 16.5858 45.4142C16.2107 45.0391 16 44.5304 16 44C16 43.4696 16.2107 42.9609 16.5858 42.5858C16.9609 42.2107 17.4696 42 18 42L41.172 42L38 38.828C37.809 38.6435 37.6566 38.4228 37.5518 38.1788C37.447 37.9348 37.3918 37.6724 37.3895 37.4068C37.3872 37.1412 37.4378 36.8779 37.5384 36.6321C37.6389 36.3863 37.7874 36.163 37.9752 35.9752C38.163 35.7874 38.3863 35.6389 38.6321 35.5384C38.8779 35.4378 39.1412 35.3872 39.4068 35.3895C39.6724 35.3918 39.9348 35.447 40.1788 35.5518C40.4228 35.6566 40.6435 35.809 40.828 36ZM23.172 12C23.5492 11.6357 24.0544 11.4341 24.5788 11.4387C25.1032 11.4432 25.6048 11.6535 25.9756 12.0244C26.3464 12.3952 26.5568 12.8968 26.5613 13.4212C26.5659 13.9456 26.3643 14.4508 26 14.828L22.828 18L46 18C46.5304 18 47.0391 18.2107 47.4142 18.5858C47.7893 18.9609 48 19.4696 48 20C48 20.5304 47.7893 21.0391 47.4142 21.4142C47.0391 21.7893 46.5304 22 46 22L22.828 22L26 25.172C26.191 25.3565 26.3434 25.5772 26.4482 25.8212C26.553 26.0652 26.6082 26.3276 26.6105 26.5932C26.6128 26.8588 26.5622 27.1221 26.4616 27.3679C26.3611 27.6137 26.2126 27.837 26.0248 28.0248C25.837 28.2126 25.6137 28.3611 25.3679 28.4616C25.1221 28.5622 24.8588 28.6128 24.5932 28.6105C24.3276 28.6082 24.0652 28.553 23.8212 28.4482C23.5772 28.3434 23.3565 28.191 23.172 28L16.584 21.416C16.2091 21.0409 15.9984 20.5323 15.9984 20.002C15.9984 19.4717 16.2091 18.9631 16.584 18.588L23.172 12Z" fill="#E5B349"/>
</svg>
